<?xml version="1.0" encoding="UTF-8"?>
<svg version="1.1" xmlns="http://www.w3.org/2000/svg" width="736" height="412">
<path d="M0 0 C242.88 0 485.76 0 736 0 C736 135.96 736 271.92 736 412 C493.12 412 250.24 412 0 412 C0 276.04 0 140.08 0 0 Z " fill="#1F67B2" transform="translate(0,0)"/>
<path d="M0 0 C1.85625 0.1546875 1.85625 0.1546875 3.75 0.3125 C3.07904297 1.29476562 3.07904297 1.29476562 2.39453125 2.296875 C-8.81582089 19.21996523 -13.958909 38.05546881 -10.0625 58.25 C-7.3279041 69.79889805 -3.02373352 79.57159791 3.75 89.3125 C0.68036425 89.73589803 -1.2879042 89.9874079 -4.25 89.3125 C-6.9184425 87.05695738 -8.52315894 84.32340236 -10.25 81.3125 C-10.69214844 80.56484375 -11.13429688 79.8171875 -11.58984375 79.046875 C-20.30015675 63.05590524 -22.56014131 43.07323655 -17.75732422 25.41870117 C-15.47853712 18.27879487 -12.23083399 11.64615183 -8.25 5.3125 C-7.63125 4.260625 -7.0125 3.20875 -6.375 2.125 C-3.91881286 0.03001685 -3.12944247 0.0329415 0 0 Z " fill="#F7FBFB" transform="translate(106.25,66.6875)"/>
<path d="M0 0 C1.85625 0.1546875 1.85625 0.1546875 3.75 0.3125 C3.07904297 1.29476562 3.07904297 1.29476562 2.39453125 2.296875 C-10.16846075 21.26190344 -12.71052832 39.99199306 -10.25 62.3125 C-14.96451004 57.59798996 -14.43033819 50.45694995 -14.4375 44.1875 C-14.43830566 43.50671387 -14.43911133 42.82592773 -14.43994141 42.12451172 C-14.39573772 38.08625959 -13.96829057 34.28020026 -13.25 30.3125 C-13.21296931 28.31284285 -13.20239444 26.31193335 -13.25 24.3125 C-17.81727052 31.99370157 -17.7327067 39.12612298 -17.5 47.875 C-17.48195313 49.16986328 -17.46390625 50.46472656 -17.4453125 51.79882812 C-17.39849322 54.97083414 -17.33292473 58.14126704 -17.25 61.3125 C-22.2916599 52.69845675 -20.45655138 36.92467676 -18.33984375 27.4921875 C-16.15688237 19.57987436 -12.60653829 12.24391106 -8.25 5.3125 C-7.63125 4.260625 -7.0125 3.20875 -6.375 2.125 C-3.91881286 0.03001685 -3.12944247 0.0329415 0 0 Z " fill="#E9F7FC" transform="translate(106.25,66.6875)"/>
<path d="M0 0 C2.37536547 0 4.75153255 -0.0300613 7.125 -0.125 C10 0 10 0 12 2 C12.1953125 4.3828125 12.1953125 4.3828125 12.125 7.125 C12.10695312 8.03507813 12.08890625 8.94515625 12.0703125 9.8828125 C12.04710937 10.58148438 12.02390625 11.28015625 12 12 C3.42857143 12.28571429 3.42857143 12.28571429 0 10 C-0.33 10.66 -0.66 11.32 -1 12 C-3.74086056 12.22223194 -5.43963721 12.34781139 -7.8125 10.875 C-9.55198782 8.12844028 -9.39769128 6.18153026 -9 3 C-6.75934517 -0.73442472 -4.04881658 -0.24788673 0 0 Z " fill="#27619E" transform="translate(164,195)"/>
<path d="M0 0 C2.24609375 0.29296875 4.4921875 0.5859375 6.73828125 0.87890625 C9.16817116 1.14755178 9.16817116 1.14755178 12 0 C12 0.66 12 1.32 12 2 C11.01 2.66 10.02 3.32 9 4 C8.42006301 6.19454681 8.42006301 6.19454681 8.3125 8.625 C8.24675781 9.44226563 8.18101563 10.25953125 8.11328125 11.1015625 C8.07589844 11.72804687 8.03851563 12.35453125 8 13 C7.2575 12.814375 6.515 12.62875 5.75 12.4375 C2.95957329 11.99356848 1.65589516 12.25302949 -1 13 C-2.66623639 13.03786901 -4.33397597 13.04627845 -6 13 C-8.60018816 9.09971775 -8.15085514 5.52565431 -8 1 C-7.34 1 -6.68 1 -6 1 C-5.67 3.97 -5.34 6.94 -5 10 C-3.68 10 -2.36 10 -1 10 C-0.67 6.7 -0.34 3.4 0 0 Z " fill="#2B68A8" transform="translate(102,194)"/>
<path d="M0 0 C2.8326134 1.4163067 3.01707833 3.14497293 4.125 6.0625 C4.47820312 6.98160156 4.83140625 7.90070313 5.1953125 8.84765625 C5.46085937 9.55792969 5.72640625 10.26820313 6 11 C6.33 11 6.66 11 7 11 C7.33 8.69 7.66 6.38 8 4 C10.0957136 7.14357039 12.08381059 10.34491739 14.0625 13.5625 C14.42666016 14.15224609 14.79082031 14.74199219 15.16601562 15.34960938 C17.87788639 19.75577278 17.87788639 19.75577278 19 22 C15.93036425 22.42339803 13.9620958 22.6749079 11 22 C5.87645648 17.66924497 2.37336872 10.17495933 0 4 C0 2.68 0 1.36 0 0 Z " fill="#E0F3FC" transform="translate(91,134)"/>
<path d="M0 0 C7 0 7 0 10 2 C10.3125 5 10.3125 5 10 8 C8 10 8 10 5.375 10.125 C4.59125 10.08375 3.8075 10.0425 3 10 C3 12.31 3 14.62 3 17 C2.01 16.67 1.02 16.34 0 16 C0 10.72 0 5.44 0 0 Z " fill="#B8D7ED" transform="translate(122,190)"/>
<path d="M0 0 C2.32528287 2.32528287 2.29511025 2.84665898 2.3125 6 C2.32925781 6.70125 2.34601563 7.4025 2.36328125 8.125 C2.18345703 9.053125 2.18345703 9.053125 2 10 C-1.23253796 12.15502531 -2.25150923 12.46856135 -6 12 C-7.8125 10.875 -7.8125 10.875 -9 9 C-9.39365568 5.85075452 -9.52854531 3.88090884 -7.875 1.125 C-5.15781176 -0.50531294 -3.10347254 -0.33015665 0 0 Z " fill="#CBEDF9" transform="translate(89,195)"/>
<path d="M0 0 C2.97 0 5.94 0 9 0 C10.82089479 3.64178957 10.05121113 8.00553148 10 12 C6.7 12 3.4 12 0 12 C0 8.04 0 4.08 0 0 Z " fill="#2F68A7" transform="translate(179,195)"/>
<path d="M0 0 C1.8125 1.125 1.8125 1.125 3 3 C3.4375 6 3.4375 6 3 9 C1.3125 10.9375 1.3125 10.9375 -1 12 C-3.625 11.875 -3.625 11.875 -6 11 C-8.15502531 7.76746204 -8.46856135 6.74849077 -8 3 C-5.85607122 -0.27231235 -3.76836426 -0.56525464 0 0 Z " fill="#D7F1FD" transform="translate(71,129)"/>
<path d="M0 0 C2.9375 0.8125 2.9375 0.8125 4.9375 2.8125 C5.1875 5.8125 5.1875 5.8125 4.9375 8.8125 C2.9375 10.8125 2.9375 10.8125 -0.5625 11.125 C-2.295 10.9703125 -2.295 10.9703125 -4.0625 10.8125 C-6.21752531 7.57996204 -6.53106135 6.56099077 -6.0625 2.8125 C-4.28235296 -0.15441173 -3.48497618 -0.21336589 0 0 Z " fill="#DAF3FC" transform="translate(69.0625,86.1875)"/>
<path d="M0 0 C0.66 0 1.32 0 2 0 C2.01417969 1.258125 2.02835937 2.51625 2.04296875 3.8125 C2.33961682 16.51352434 3.77525746 27.87549512 9.7265625 39.3203125 C10.14679688 40.20460937 10.56703125 41.08890625 11 42 C10.67 42.66 10.34 43.32 10 44 C9.01 43.67 8.02 43.34 7 43 C7 41.35 7 39.7 7 38 C6.34 38 5.68 38 5 38 C3.14255116 33.84092977 2.17226879 29.64965805 1.375 25.1875 C1.17716919 24.08547241 1.17716919 24.08547241 0.9753418 22.96118164 C-0.2896752 15.29339599 -0.28147924 7.74589173 0 0 Z " fill="#2F65A0" transform="translate(85,104)"/>
<path d="M0 0 C2.875 -0.125 2.875 -0.125 6 0 C8 2 8 2 8.1953125 4.3828125 C8.17210937 5.28773438 8.14890625 6.19265625 8.125 7.125 C8.10695312 8.03507813 8.08890625 8.94515625 8.0703125 9.8828125 C8.04710937 10.58148438 8.02390625 11.28015625 8 12 C1.9453125 12.1953125 1.9453125 12.1953125 0 12 C-0.66 11.34 -1.32 10.68 -2 10 C-2 8 -2 8 -1 6 C2.0625 4.75 2.0625 4.75 5 4 C4.67 3.34 4.34 2.68 4 2 C2.35 2 0.7 2 -1 2 C-0.67 1.34 -0.34 0.68 0 0 Z " fill="#BADFF3" transform="translate(168,195)"/>
<path d="M0 0 C1 1 1 1 1.0625 3.5625 C1.041875 4.366875 1.02125 5.17125 1 6 C-1.64 6 -4.28 6 -7 6 C-6.67 7.32 -6.34 8.64 -6 10 C-2.535 9.505 -2.535 9.505 1 9 C0.67 9.99 0.34 10.98 0 12 C-5.4 12.36 -5.4 12.36 -7.875 10.875 C-9.52854531 8.11909116 -9.39365568 6.14924548 -9 3 C-6.78015634 -0.69973943 -4.02690207 -0.3501654 0 0 Z " fill="#B1DCF2" transform="translate(243,195)"/>
<path d="M0 0 C3 -0.3125 3 -0.3125 6 0 C8 2 8 2 8 6 C5.36 6 2.72 6 0 6 C0.33 6.99 0.66 7.98 1 9 C3.97 9.495 3.97 9.495 7 10 C7 10.66 7 11.32 7 12 C1.6 12.36 1.6 12.36 -0.875 10.875 C-2.51151479 8.14747535 -2.32502803 6.12026907 -2 3 C-1.34 2.01 -0.68 1.02 0 0 Z " fill="#C6ECFA" transform="translate(213,195)"/>
<path d="M0 0 C2.31 0.66 4.62 1.32 7 2 C6.90460938 2.62648437 6.80921875 3.25296875 6.7109375 3.8984375 C6.60007813 4.71570313 6.48921875 5.53296875 6.375 6.375 C6.25898438 7.18710938 6.14296875 7.99921875 6.0234375 8.8359375 C6.01570312 9.55007812 6.00796875 10.26421875 6 11 C8.1385485 13.1385485 9.13275314 13.42655063 12 14 C12 14.66 12 15.32 12 16 C8.37 15.67 4.74 15.34 1 15 C-0.08644535 10.6542186 0.09319089 10.05039452 1.9375 6.25 C2.31777344 5.45078125 2.69804687 4.6515625 3.08984375 3.828125 C3.39019531 3.22484375 3.69054687 2.6215625 4 2 C2.68 2.99 1.36 3.98 0 5 C0 3.35 0 1.7 0 0 Z " fill="#2B68AA" transform="translate(229,193)"/>
<path d="M0 0 C0.33 1.32 0.66 2.64 1 4 C0.01 4 -0.98 4 -2 4 C-2.2475 5.051875 -2.495 6.10375 -2.75 7.1875 C-3.54100419 10.04772531 -4.12248906 11.14410478 -6.125 13.5 C-8.58573793 16.7809839 -8.31376616 18.99948144 -8 23 C-9.98 23.99 -11.96 24.98 -14 26 C-11.54173801 15.8650602 -6.93360123 7.74931903 0 0 Z " fill="#3669A7" transform="translate(111,66)"/>
<path d="M0 0 C0.66 0 1.32 0 2 0 C2 9.24 2 18.48 2 28 C1.34 27.67 0.68 27.34 0 27 C-1.95278154 18.21248307 -1.35941649 8.83620718 0 0 Z " fill="#3B71AA" transform="translate(95,98)"/>
<path d="M0 0 C0.66 0.99 1.32 1.98 2 3 C1.3125 5.125 1.3125 5.125 0 8 C-3.47433105 15.76108414 -3.35489438 23.17131996 -3.1875 31.5625 C-3.17396484 32.85736328 -3.16042969 34.15222656 -3.14648438 35.48632812 C-3.1113737 38.65799214 -3.06219347 41.8287709 -3 45 C-5.91685884 40.01633415 -5.42423841 34.88244805 -5.4375 29.25 C-5.44136719 28.1350415 -5.44523437 27.02008301 -5.44921875 25.87133789 C-5.31962007 16.51795798 -3.586092 8.59381333 0 0 Z " fill="#C7E3F4" transform="translate(92,83)"/>
<path d="M0 0 C0 0.66 0 1.32 0 2 C-4.455 2.495 -4.455 2.495 -9 3 C-9.020625 4.44375 -9.04125 5.8875 -9.0625 7.375 C-9.07410156 8.18710938 -9.08570313 8.99921875 -9.09765625 9.8359375 C-9.14466334 12.04937142 -9.14466334 12.04937142 -8 14 C-6.10466658 14.46523063 -6.10466658 14.46523063 -3.9375 14.625 C-2.638125 14.74875 -1.33875 14.8725 0 15 C-0.33 15.66 -0.66 16.32 -1 17 C-7.625 17.25 -7.625 17.25 -11 15 C-12.20190901 11.39427296 -12.32670315 8.7897565 -12 5 C-9.02108075 -0.83371686 -5.96431213 -0.49702601 0 0 Z " fill="#C3EAFB" transform="translate(147,190)"/>
<path d="M0 0 C1.32 0.66 2.64 1.32 4 2 C2.35 2.33 0.7 2.66 -1 3 C-0.34 4.32 0.32 5.64 1 7 C1.66 7 2.32 7 3 7 C3 7.66 3 8.32 3 9 C3.66 9.33 4.32 9.66 5 10 C5 10.99 5 11.98 5 13 C2.125 13.1875 2.125 13.1875 -1 13 C-3.46324069 9.30513897 -3.38991688 7.36706908 -3 3 C-1.5 1.0625 -1.5 1.0625 0 0 Z " fill="#2F68A8" transform="translate(140,192)"/>
<path d="M0 0 C0.66 0 1.32 0 2 0 C2.33 2.97 2.66 5.94 3 9 C4.32 9 5.64 9 7 9 C7.33 6.03 7.66 3.06 8 0 C8.66 0 9.32 0 10 0 C10 3.96 10 7.92 10 12 C7.36 12 4.72 12 2 12 C-0.60018816 8.09971775 -0.15085514 4.52565431 0 0 Z " fill="#D0EDFD" transform="translate(94,195)"/>
<path d="M0 0 C2.97 0 5.94 0 9 0 C10.26237731 2.52475462 10.09856404 4.31200466 10.0625 7.125 C10.05347656 8.03507813 10.04445312 8.94515625 10.03515625 9.8828125 C10.02355469 10.58148438 10.01195312 11.28015625 10 12 C9.34 12 8.68 12 8 12 C7.67 8.37 7.34 4.74 7 1 C5.02 1.99 5.02 1.99 3 3 C2.3006486 5.18541552 2.3006486 5.18541552 2.25 7.625 C2.19328125 8.44226563 2.1365625 9.25953125 2.078125 10.1015625 C2.05234375 10.72804687 2.0265625 11.35453125 2 12 C1.34 12 0.68 12 0 12 C0 8.04 0 4.08 0 0 Z " fill="#C3ECFB" transform="translate(179,195)"/>
<path d="M0 0 C2.625 0.375 2.625 0.375 5 1 C5 3.31 5 5.62 5 8 C2.625 8.625 2.625 8.625 0 9 C-2 7 -2 7 -2.25 4.5 C-2 2 -2 2 0 0 Z " fill="#2B68A4" transform="translate(84,196)"/>
<path d="M0 0 C0.66 0 1.32 0 2 0 C3.32 2.31 4.64 4.62 6 7 C7.32 4.69 8.64 2.38 10 0 C10.66 0 11.32 0 12 0 C10.16504854 4.7184466 10.16504854 4.7184466 8.9375 6.8125 C7.51539981 10.13073378 7.35851435 13.41485649 7 17 C6.34 17 5.68 17 5 17 C4.89042969 16.41992188 4.78085938 15.83984375 4.66796875 15.2421875 C3.68125712 10.38082776 2.36364178 6.40496877 0 2 C0 1.34 0 0.68 0 0 Z " fill="#C0E3F9" transform="translate(67,190)"/>
<path d="M0 0 C6.0546875 -0.1953125 6.0546875 -0.1953125 8 0 C10 2 10 2 10.1953125 4.3828125 C10.17210937 5.28773438 10.14890625 6.19265625 10.125 7.125 C10.10695313 8.03507813 10.08890625 8.94515625 10.0703125 9.8828125 C10.04710937 10.58148438 10.02390625 11.28015625 10 12 C9.34 12 8.68 12 8 12 C7.67 8.7 7.34 5.4 7 2 C5.68 2.33 4.36 2.66 3 3 C2.67 5.97 2.34 8.94 2 12 C1.34 12 0.68 12 0 12 C0 8.04 0 4.08 0 0 Z " fill="#BFEAFC" transform="translate(247,195)"/>
<path d="M0 0 C0.433125 0.474375 0.86625 0.94875 1.3125 1.4375 C3.02309613 3.23686957 3.02309613 3.23686957 6 4 C5.67 4.66 5.34 5.32 5 6 C5.66 6.33 6.32 6.66 7 7 C6.01 7.33 5.02 7.66 4 8 C3.67 7.34 3.34 6.68 3 6 C2.01 6 1.02 6 0 6 C0 7.98 0 9.96 0 12 C0.66 12 1.32 12 2 12 C2 12.66 2 13.32 2 14 C1.01 14 0.02 14 -1 14 C-1.33 16.64 -1.66 19.28 -2 22 C-2.33 22 -2.66 22 -3 22 C-3.06058594 21.38511719 -3.12117187 20.77023438 -3.18359375 20.13671875 C-3.26738281 19.32847656 -3.35117188 18.52023438 -3.4375 17.6875 C-3.51871094 16.88699219 -3.59992188 16.08648437 -3.68359375 15.26171875 C-3.95265693 12.83912821 -3.95265693 12.83912821 -5 10 C-4.01 10 -3.02 10 -2 10 C-0.48046291 5.08417923 -0.48046291 5.08417923 0 0 Z " fill="#2461A1" transform="translate(192,184)"/>
<path d="M0 0 C0.99 0 1.98 0 3 0 C3 0.66 3 1.32 3 2 C3.66 2.33 4.32 2.66 5 3 C5.23538888 4.88311102 5.46366851 6.7675003 5.6484375 8.65625 C6.23985369 12.59902463 7.62714345 16.26997466 9 20 C5.3864696 16.85746395 3.89703485 13.90584456 2.25 9.4375 C1.82203125 8.30183594 1.3940625 7.16617188 0.953125 5.99609375 C0 3 0 3 0 0 Z " fill="#3066A3" transform="translate(97,129)"/>
<path d="M0 0 C0.66 0.66 1.32 1.32 2 2 C2.33 2 2.66 2 3 2 C3.22786458 3.98567708 3.45572917 5.97135417 3.68359375 7.95703125 C3.97170735 10.19396393 3.97170735 10.19396393 5 13 C4.01 13 3.02 13 2 13 C2 10.36 2 7.72 2 5 C0.68 5.33 -0.64 5.66 -2 6 C-1.67 8.64 -1.34 11.28 -1 14 C-2.32 13.67 -3.64 13.34 -5 13 C-4.34 13 -3.68 13 -3 13 C-3.061875 11.783125 -3.12375 10.56625 -3.1875 9.3125 C-3.20822824 5.42249954 -2.37275814 3.16367751 0 0 Z " fill="#2E629B" transform="translate(77,194)"/>
<path d="M0 0 C0.66 0 1.32 0 2 0 C2 0.99 2 1.98 2 3 C2.99 3 3.98 3 5 3 C5 3.66 5 4.32 5 5 C4.01 5 3.02 5 2 5 C2 7.64 2 10.28 2 13 C2.99 13 3.98 13 5 13 C5 13.66 5 14.32 5 15 C3.35 14.67 1.7 14.34 0 14 C0 11.03 0 8.06 0 5 C-0.66 5 -1.32 5 -2 5 C-2 4.34 -2 3.68 -2 3 C-1.34 3 -0.68 3 0 3 C0 2.01 0 1.02 0 0 Z " fill="#C3E6FA" transform="translate(198,192)"/>
<path d="M0 0 C-0.33 0.66 -0.66 1.32 -1 2 C-2.65 2 -4.3 2 -6 2 C-5.67 4.31 -5.34 6.62 -5 9 C-3.35 9.33 -1.7 9.66 0 10 C-0.33 10.66 -0.66 11.32 -1 12 C-3.74086056 12.22223194 -5.43963721 12.34781139 -7.8125 10.875 C-9.55198782 8.12844028 -9.39769128 6.18153026 -9 3 C-6.77089201 -0.71517998 -4.03410755 -0.2689405 0 0 Z " fill="#B8E3F6" transform="translate(164,195)"/>
<path d="M0 0 C2.625 0.9375 2.625 0.9375 5 2 C4.67 3.98 4.34 5.96 4 8 C2.02 8 0.04 8 -2 8 C-2 5.69 -2 3.38 -2 1 C-1.34 0.67 -0.68 0.34 0 0 Z " fill="#F9FEFC" transform="translate(67,87)"/>
<path d="M0 0 C0 0.99 0 1.98 0 3 C-0.66 2.67 -1.32 2.34 -2 2 C-2 5.63 -2 9.26 -2 13 C-2.99 13 -3.98 13 -5 13 C-5.33 9.37 -5.66 5.74 -6 2 C-4.02 1.34 -2.04 0.68 0 0 Z " fill="#2A639E" transform="translate(181,193)"/>
<path d="M0 0 C0.66 0 1.32 0 2 0 C0.57250019 3.79049707 -1.16236542 7.27122456 -3.125 10.8125 C-3.93324219 12.27623047 -3.93324219 12.27623047 -4.7578125 13.76953125 C-5.16773437 14.50558594 -5.57765625 15.24164063 -6 16 C-7 13 -7 13 -6 10 C-6.66 10 -7.32 10 -8 10 C-8 9.34 -8 8.68 -8 8 C-7.34 8 -6.68 8 -6 8 C-6 7.34 -6 6.68 -6 6 C-5.34 6 -4.68 6 -4 6 C-4 5.34 -4 4.68 -4 4 C-3.01 4 -2.02 4 -1 4 C-0.67 2.68 -0.34 1.36 0 0 Z " fill="#3368A7" transform="translate(98,69)"/>
<path d="M0 0 C2 1 4 2 6 3 C4.88213958 6.35358125 3.25245881 8.31158141 1 11 C0.01 10.67 -0.98 10.34 -2 10 C-1.34 10 -0.68 10 0 10 C0 6.7 0 3.4 0 0 Z " fill="#2163A6" transform="translate(257,197)"/>
<path d="M0 0 C0.66 0 1.32 0 2 0 C2.99 2.31 3.98 4.62 5 7 C7.22189824 4.77810176 7.92598892 2.91517292 9 0 C9.66 0 10.32 0 11 0 C10.52269162 1.4589426 10.04308958 2.91713496 9.5625 4.375 C9.29566406 5.18710938 9.02882812 5.99921875 8.75390625 6.8359375 C8 9 8 9 7 11 C6.01 11 5.02 11 4 11 C3.32880451 9.5437455 2.66318193 8.08492133 2 6.625 C1.62875 5.81289062 1.2575 5.00078125 0.875 4.1640625 C0 2 0 2 0 0 Z " fill="#CCECFA" transform="translate(222,195)"/>
<path d="M0 0 C1.66611905 -0.042721 3.33382885 -0.04063832 5 0 C6 1 6 1 6.125 3.5 C6 6 6 6 5 7 C3.33382885 7.04063832 1.66611905 7.042721 0 7 C0 4.69 0 2.38 0 0 Z " fill="#3C76AE" transform="translate(124,192)"/>
<path d="M0 0 C3.3 0 6.6 0 10 0 C10.33 0.66 10.66 1.32 11 2 C8.03 2 5.06 2 2 2 C2 7.28 2 12.56 2 18 C1.67 18 1.34 18 1 18 C0.67 12.06 0.34 6.12 0 0 Z " fill="#24609D" transform="translate(120,188)"/>
<path d="M0 0 C3.1875 -0.375 3.1875 -0.375 7 0 C10.57392937 3.34084702 12.56562003 6.07702706 13 11 C12.01 10.67 11.02 10.34 10 10 C8.3125 6.4375 8.3125 6.4375 7 3 C4.69 3 2.38 3 0 3 C0 2.01 0 1.02 0 0 Z " fill="#3B6EA4" transform="translate(212,193)"/>
<path d="M0 0 C0.66 0.99 1.32 1.98 2 3 C1.67 3.99 1.34 4.98 1 6 C0.01 5.67 -0.98 5.34 -2 5 C-2 4.34 -2 3.68 -2 3 C-4.64 3 -7.28 3 -10 3 C-10 2.34 -10 1.68 -10 1 C-6.61292998 0.22581257 -3.47338282 -0.37550085 0 0 Z " fill="#2763A2" transform="translate(149,187)"/>
<path d="M0 0 C1.78022849 2.67034273 2.89126186 4.97600432 4.0625 7.9375 C4.40410156 8.79214844 4.74570313 9.64679688 5.09765625 10.52734375 C5.88211455 12.67696324 6.49817903 14.77025942 7 17 C5.68 16.67 4.36 16.34 3 16 C3 14.35 3 12.7 3 11 C2.34 11 1.68 11 1 11 C0.4254048 7.26513121 0 3.78706732 0 0 Z " fill="#4073AE" transform="translate(89,131)"/>
<path d="M0 0 C0.66 0 1.32 0 2 0 C2 0.66 2 1.32 2 2 C3.98 2 5.96 2 8 2 C7.34 3.65 6.68 5.3 6 7 C5.01 6.67 4.02 6.34 3 6 C3 7.65 3 9.3 3 11 C2.34 10.67 1.68 10.34 1 10 C1.04125 9.05125 1.0825 8.1025 1.125 7.125 C1.34973818 3.89755144 1.34973818 3.89755144 -1 2 C-0.67 1.34 -0.34 0.68 0 0 Z " fill="#3473AF" transform="translate(130,188)"/>
<path d="M0 0 C2.475 0.495 2.475 0.495 5 1 C4.67 1.99 4.34 2.98 4 4 C3.93259135 5.56118428 3.91485544 7.1250252 3.9375 8.6875 C3.94652344 9.49574219 3.95554688 10.30398437 3.96484375 11.13671875 C3.97644531 11.75160156 3.98804688 12.36648437 4 13 C2.68 12.67 1.36 12.34 0 12 C0.08378906 11.38511719 0.16757813 10.77023438 0.25390625 10.13671875 C0.35574219 9.32847656 0.45757812 8.52023438 0.5625 7.6875 C0.66691406 6.88699219 0.77132812 6.08648437 0.87890625 5.26171875 C1.14755178 2.83182884 1.14755178 2.83182884 0 0 Z " fill="#286ABD" transform="translate(145,192)"/>
<path d="M0 0 C2.625 0.9375 2.625 0.9375 5 2 C4.39816251 4.02045442 3.72693904 6.02111039 3 8 C2.01 8.495 2.01 8.495 1 9 C-2 3.25 -2 3.25 -2 1 C-1.34 0.67 -0.68 0.34 0 0 Z " fill="#346BA9" transform="translate(71,189)"/>
<path d="M0 0 C1.32 0 2.64 0 4 0 C4.38218767 1.65614657 4.71395102 3.32457024 5 5 C4 6 4 6 0.9375 6.0625 C-0.5165625 6.0315625 -0.5165625 6.0315625 -2 6 C-1.125 1.125 -1.125 1.125 0 0 Z " fill="#FDFBF7" transform="translate(67,132)"/>
<path d="M0 0 C1.4943899 2.98877979 0.91874257 4.85002546 0 8 C-2.5625 9.375 -2.5625 9.375 -5 10 C-4.67 7.03 -4.34 4.06 -4 1 C-2.68 0.67 -1.36 0.34 0 0 Z " fill="#FAFDF9" transform="translate(100,75)"/>
<path d="M0 0 C0.33 0.99 0.66 1.98 1 3 C1.66 3 2.32 3 3 3 C3 3.99 3 4.98 3 6 C1 7.6875 1 7.6875 -1 9 C-1 8.34 -1 7.68 -1 7 C-1.66 7 -2.32 7 -3 7 C-3 5.02 -3 3.04 -3 1 C-2.01 0.67 -1.02 0.34 0 0 Z " fill="#598EC2" transform="translate(195,189)"/>
<path d="M0 0 C0 0.66 0 1.32 0 2 C-0.99 2.66 -1.98 3.32 -3 4 C-3.57993699 6.19454681 -3.57993699 6.19454681 -3.6875 8.625 C-3.78611328 9.85089844 -3.78611328 9.85089844 -3.88671875 11.1015625 C-3.94279297 12.04128906 -3.94279297 12.04128906 -4 13 C-4.66 13 -5.32 13 -6 13 C-6 9.04 -6 5.08 -6 1 C-2 0 -2 0 0 0 Z " fill="#C9E6FB" transform="translate(114,194)"/>
<path d="M0 0 C2.475 0.495 2.475 0.495 5 1 C5.33 2.98 5.66 4.96 6 7 C4.68 7 3.36 7 2 7 C0 2.25 0 2.25 0 0 Z " fill="#EDF4F9" transform="translate(101,148)"/>
<path d="M0 0 C0.33 0 0.66 0 1 0 C1 3.96 1 7.92 1 12 C0.01 10.68 -0.98 9.36 -2 8 C-4.0488648 7.51942285 -4.0488648 7.51942285 -6.1875 7.75 C-8.0746875 7.87375 -8.0746875 7.87375 -10 8 C-10 7.34 -10 6.68 -10 6 C-7.36 6 -4.72 6 -2 6 C-1.67 5.01 -1.34 4.02 -1 3 C-0.67 2.01 -0.34 1.02 0 0 Z " fill="#3D74AC" transform="translate(246,195)"/>
<path d="M0 0 C0.99 0.33 1.98 0.66 3 1 C3.33 2.98 3.66 4.96 4 7 C2.68 7.33 1.36 7.66 0 8 C-0.66 5.69 -1.32 3.38 -2 1 C-1.34 0.67 -0.68 0.34 0 0 Z " fill="#2D6BB4" transform="translate(160,196)"/>
<path d="M0 0 C0.66 0 1.32 0 2 0 C2 3.3 2 6.6 2 10 C0.68 9.67 -0.64 9.34 -2 9 C-2 7.68 -2 6.36 -2 5 C-1.34 5 -0.68 5 0 5 C0 3.35 0 1.7 0 0 Z " fill="#2868A4" transform="translate(133,194)"/>
<path d="M0 0 C1 1 1 1 1.0625 3.5625 C1.041875 4.366875 1.02125 5.17125 1 6 C-1.64 6 -4.28 6 -7 6 C-7 5.67 -7 5.34 -7 5 C-5.02 5 -3.04 5 -1 5 C-1.33 4.01 -1.66 3.02 -2 2 C-3.98 2.33 -5.96 2.66 -8 3 C-8 2.34 -8 1.68 -8 1 C-5.26752652 -0.36623674 -3.01801098 -0.128426 0 0 Z " fill="#C9F0FA" transform="translate(243,195)"/>
<path d="M0 0 C2.64 0 5.28 0 8 0 C7.34 1.32 6.68 2.64 6 4 C4.35 4 2.7 4 1 4 C0.67 2.68 0.34 1.36 0 0 Z " fill="#376AA2" transform="translate(213,201)"/>
<path d="M0 0 C0.33 0.66 0.66 1.32 1 2 C-0.11375 2.433125 -1.2275 2.86625 -2.375 3.3125 C-6.17512334 4.69911119 -6.17512334 4.69911119 -8 8 C-8.36075949 3.55063291 -8.36075949 3.55063291 -6.8125 1.1875 C-4.44017475 -0.36678206 -2.77958655 -0.22537188 0 0 Z " fill="#C8E6F5" transform="translate(71,129)"/>
<path d="M0 0 C2.31 0.66 4.62 1.32 7 2 C6.34 4.64 5.68 7.28 5 10 C3 7 3 7 3.375 4.3125 C3.58125 3.549375 3.7875 2.78625 4 2 C2.68 2.99 1.36 3.98 0 5 C0 3.35 0 1.7 0 0 Z " fill="#25669F" transform="translate(229,193)"/>
<path d="M0 0 C3.29936132 0.5688554 4.76024316 1.54693298 7 4 C7.33 4 7.66 4 8 4 C8 5.98 8 7.96 8 10 C7.01 10 6.02 10 5 10 C4.731875 9.071875 4.46375 8.14375 4.1875 7.1875 C3.07551601 4.20270088 2.33417575 3.01587906 0 1 C0 0.67 0 0.34 0 0 Z " fill="#4072AF" transform="translate(69,84)"/>
<path d="M0 0 C0.66 0 1.32 0 2 0 C1.34 3.3 0.68 6.6 0 10 C-0.66 10 -1.32 10 -2 10 C-2.1953125 3.9453125 -2.1953125 3.9453125 -2 2 C-1.34 1.34 -0.68 0.68 0 0 Z " fill="#3668A3" transform="translate(89,86)"/>
<path d="M0 0 C0.34179688 2.97851562 0.34179688 2.97851562 0.68359375 5.95703125 C0.97170735 8.19396393 0.97170735 8.19396393 2 11 C1.01 11 0.02 11 -1 11 C-1 8.36 -1 5.72 -1 3 C-1.99 3.33 -2.98 3.66 -4 4 C-3.67 3.01 -3.34 2.02 -3 1 C-1 0 -1 0 0 0 Z " fill="#2261A3" transform="translate(80,196)"/>
<path d="M0 0 C1.36511719 0.29197266 1.36511719 0.29197266 2.7578125 0.58984375 C3.45648438 0.74582031 4.15515625 0.90179688 4.875 1.0625 C4.215 1.7225 3.555 2.3825 2.875 3.0625 C2.545 2.7325 2.215 2.4025 1.875 2.0625 C-2.15660191 1.79956944 -3.68392734 1.76845156 -7.125 4.0625 C-7.125 2.7425 -7.125 1.4225 -7.125 0.0625 C-4.4030754 -1.2984623 -2.9418043 -0.64116248 0 0 Z " fill="#4A78AF" transform="translate(87.125,193.9375)"/>
<path d="M0 0 C0.33 0 0.66 0 1 0 C1.33 1.65 1.66 3.3 2 5 C3.65 5.33 5.3 5.66 7 6 C6.67 6.66 6.34 7.32 6 8 C3.625 8.1875 3.625 8.1875 1 8 C-1 5 -1 5 -0.625 2.3125 C-0.41875 1.549375 -0.2125 0.78625 0 0 Z " fill="#A9D6ED" transform="translate(157,199)"/>
<path d="M0 0 C-0.33 1.32 -0.66 2.64 -1 4 C-2.65 4 -4.3 4 -6 4 C-6 3.01 -6 2.02 -6 1 C-4 0 -4 0 0 0 Z " fill="#496F9F" transform="translate(174,201)"/>
<path d="M0 0 C1.32 0 2.64 0 4 0 C4 1.65 4 3.3 4 5 C3.01 5.33 2.02 5.66 1 6 C1 4 1 4 2 3 C1.01 3.99 0.02 4.98 -1 6 C-1.042721 4.33388095 -1.04063832 2.66617115 -1 1 C-0.67 0.67 -0.34 0.34 0 0 Z " fill="#3675B8" transform="translate(83,197)"/>
<path d="M0 0 C0.66 0 1.32 0 2 0 C1.54917531 1.46067199 1.08906463 2.91848032 0.625 4.375 C0.36976563 5.18710938 0.11453125 5.99921875 -0.1484375 6.8359375 C-1 9 -1 9 -3 11 C-3.33 10.34 -3.66 9.68 -4 9 C-3.22265625 6.8359375 -3.22265625 6.8359375 -2.0625 4.375 C-1.68222656 3.55773437 -1.30195313 2.74046875 -0.91015625 1.8984375 C-0.60980469 1.27195313 -0.30945313 0.64546875 0 0 Z " fill="#C2E3F8" transform="translate(231,195)"/>
<path d="M0 0 C1.32 0.33 2.64 0.66 4 1 C4 1.99 4 2.98 4 4 C2.02 4 0.04 4 -2 4 C-1.34 2.68 -0.68 1.36 0 0 Z " fill="#4F75A3" transform="translate(238,196)"/>
<path d="M0 0 C1.32 0.33 2.64 0.66 4 1 C4 1.99 4 2.98 4 4 C2.02 4 0.04 4 -2 4 C-1.34 2.68 -0.68 1.36 0 0 Z " fill="#4976AE" transform="translate(215,196)"/>
<path d="M0 0 C1.9453125 -0.29296875 1.9453125 -0.29296875 4.125 -0.1875 C5.40375 -0.125625 6.6825 -0.06375 8 0 C8 0.66 8 1.32 8 2 C4.7 2.33 1.4 2.66 -2 3 C-1.34 2.01 -0.68 1.02 0 0 Z " fill="#AFDCF6" transform="translate(139,190)"/>
<path d="M0 0 C0.33 0 0.66 0 1 0 C1.66 2.97 2.32 5.94 3 9 C2.01 9.495 2.01 9.495 1 10 C0.67 8.35 0.34 6.7 0 5 C-0.66 5 -1.32 5 -2 5 C-1.125 1.125 -1.125 1.125 0 0 Z " fill="#2C68AA" transform="translate(62,131)"/>
<path d="M0 0 C1.32 0.33 2.64 0.66 4 1 C4 2.98 4 4.96 4 7 C3.01 6.67 2.02 6.34 1 6 C0.67 4.02 0.34 2.04 0 0 Z " fill="#E9F9FD" transform="translate(70,131)"/>
<path d="M0 0 C0.226875 0.5775 0.45375 1.155 0.6875 1.75 C2.33038023 4.5663661 4.39533227 6.08077114 7 8 C5.1875 8.6875 5.1875 8.6875 3 9 C1.25 7.9375 1.25 7.9375 0 6 C-0.1875 2.8125 -0.1875 2.8125 0 0 Z " fill="#AED1EB" transform="translate(80,198)"/>
<path d="M0 0 C0.66 0.33 1.32 0.66 2 1 C1.67 3.64 1.34 6.28 1 9 C0.34 9 -0.32 9 -1 9 C-1.09765625 2.84765625 -1.09765625 2.84765625 -1 1 C-0.67 0.67 -0.34 0.34 0 0 Z " fill="#356194" transform="translate(250,197)"/>
<path d="M0 0 C0.66 0 1.32 0 2 0 C2.33 3.63 2.66 7.26 3 11 C0.82905523 8.82905523 0.5137 7.84247144 -0.1875 4.9375 C-0.36667969 4.22464844 -0.54585938 3.51179688 -0.73046875 2.77734375 C-0.81941406 2.19082031 -0.90835938 1.60429688 -1 1 C-0.67 0.67 -0.34 0.34 0 0 Z " fill="#DFF2FC" transform="translate(93,118)"/>
<path d="M0 0 C0.66 0 1.32 0 2 0 C0.515 5.445 0.515 5.445 -1 11 C-1.33 11 -1.66 11 -2 11 C-2.28571429 3.57142857 -2.28571429 3.57142857 0 0 Z " fill="#D9F1FC" transform="translate(98,83)"/>
<path d="M0 0 C0.33 0.99 0.66 1.98 1 3 C1.99 3.33 2.98 3.66 4 4 C3.67 4.66 3.34 5.32 3 6 C2.34 6 1.68 6 1 6 C1 5.34 1 4.68 1 4 C-0.65 4 -2.3 4 -4 4 C-3.67 3.34 -3.34 2.68 -3 2 C-2.01 2 -1.02 2 0 2 C0 1.34 0 0.68 0 0 Z " fill="#2E70B5" transform="translate(135,202)"/>
<path d="M0 0 C2.31 0 4.62 0 7 0 C7 0.66 7 1.32 7 2 C4.69 2.33 2.38 2.66 0 3 C0 2.01 0 1.02 0 0 Z " fill="#316396" transform="translate(237,202)"/>
<path d="M0 0 C0.66 0 1.32 0 2 0 C1.6875 1.9375 1.6875 1.9375 1 4 C0.01 4.33 -0.98 4.66 -2 5 C-2.33 5.66 -2.66 6.32 -3 7 C-2.25 2.25 -2.25 2.25 0 0 Z " fill="#166BB7" transform="translate(110,72)"/>
<path d="M0 0 C0 0.66 0 1.32 0 2 C-1.65 2.33 -3.3 2.66 -5 3 C-5.33 2.01 -5.66 1.02 -6 0 C-3.50907189 -1.24546405 -2.58919267 -0.7767578 0 0 Z " fill="#386EAF" transform="translate(173,197)"/>
<path d="M0 0 C1.65 0 3.3 0 5 0 C4.67 1.32 4.34 2.64 4 4 C2.68 3.67 1.36 3.34 0 3 C0 2.01 0 1.02 0 0 Z " fill="#FDFDEE" transform="translate(65,90)"/>
</svg>
